<svg version="1.1" xmlns="http://www.w3.org/2000/svg" xmlns:xlink="http://www.w3.org/1999/xlink" x="0px" y="0px" viewBox="0 0 649 485" style="enable-background:new 0 0 649 485;" xml:space="preserve">
<g>
	<polygon fill="rgba(255,255,255,0.1)" points="649,233.8 366.9,240.5 649,197.1 649,160.2 365.4,229.5 649,126.3 649,84.7 355,218.4 649,24.8 649,0 
		599.9,0 348.9,212.6 535.1,0 474.9,0 343.8,199.2 421.2,0 376.8,0 328.3,198.6 350.3,0 304.2,0 314.8,189.5 271,0 225.3,0 
		299,193.8 173.3,0 113.9,0 299.3,206.8 49.8,0 0,0 0,23.9 292.3,215.8 0,83.3 0,124.4 280.1,223.1 0,158 0,194.8 280.4,237.8 
		0,231.2 0,261.4 269.6,248.7 0,286.7 0,323.3 275.3,258.8 0,357 0,398.3 292.3,265.4 0,457.9 0,485 45.9,485 286.8,287.3 
		111.1,485 171.4,485 300,290.8 225.6,485 270.1,485 313.2,291.7 296.9,485 343.2,485 332.5,294.3 376.6,485 420.8,485 342.6,289.8 
		474.4,485 534.5,485 351.1,278.9 599.3,485 649,485 649,461 355,268 649,401.3 649,360.1 375.8,266.1 649,326.3 649,289.7 
		381.5,256 649,264.6 	"/>
</g>
</svg>
